<?xml version="1.0" encoding="UTF-8" standalone="no"?>
<!DOCTYPE svg PUBLIC "-//W3C//DTD SVG 1.1//EN" "http://www.w3.org/Graphics/SVG/1.1/DTD/svg11.dtd">
<svg width="100%" height="100%" viewBox="0 0 90 90" version="1.1" xmlns="http://www.w3.org/2000/svg" xmlns:xlink="http://www.w3.org/1999/xlink" xml:space="preserve" xmlns:serif="http://www.serif.com/" style="fill-rule:evenodd;clip-rule:evenodd;stroke-linejoin:round;stroke-miterlimit:2;">
    <g transform="matrix(1.2414,0,0,1.21664,-10.1355,-10.0267)">
        <path d="M49.762,11.858L40.238,11.858C24.629,11.858 11.858,24.629 11.858,40.238L11.858,49.762C11.858,65.371 24.629,78.142 40.238,78.142L49.762,78.142C65.371,78.142 78.142,65.371 78.142,49.762L78.142,40.238C78.142,24.629 65.371,11.858 49.762,11.858ZM54.557,68.25C54.141,68.41 53.54,68.669 52.755,68.943C51.165,69.409 48.849,70.084 45.99,70.157C43.155,70.295 39.786,69.941 36.419,68.732C33.056,67.543 29.745,65.506 27.046,62.828C24.368,60.129 22.331,56.818 21.142,53.454C19.934,50.087 19.58,46.719 19.717,43.884C19.749,42.653 19.895,41.53 20.085,40.514L14.644,38.212L30.738,26.342L33.422,46.158L27.975,43.852C27.968,43.988 27.949,44.109 27.947,44.247C27.852,46.164 28.091,48.436 28.902,50.69C29.7,52.946 31.068,55.176 32.871,57.003C34.699,58.806 36.928,60.175 39.184,60.973C41.438,61.783 43.71,62.022 45.627,61.928C47.558,61.895 49.101,61.415 50.175,61.12C51.219,60.714 51.815,60.482 51.815,60.482L55.191,67.996C55.191,67.996 54.971,68.085 54.557,68.25ZM75.356,53.352L59.262,65.222L56.578,45.406L61.632,47.545C61.72,46.987 61.791,46.4 61.802,45.752C61.896,43.835 61.657,41.563 60.847,39.309C60.049,37.053 58.68,34.824 56.878,32.996C55.049,31.194 52.82,29.825 50.565,29.027C48.31,28.216 46.039,27.977 44.122,28.072C42.191,28.105 40.647,28.585 39.573,28.879C38.529,29.286 37.932,29.518 37.932,29.518L34.558,22.003C34.558,22.003 35.433,21.629 36.994,21.057C38.584,20.591 40.9,19.916 43.758,19.843C46.594,19.705 49.962,20.059 53.329,21.267C56.693,22.457 60.004,24.494 62.702,27.172C65.38,29.87 67.417,33.181 68.606,36.545C69.815,39.912 70.169,43.28 70.031,46.115C69.985,47.915 69.7,49.499 69.379,50.823L75.356,53.352Z" style="fill-rule:nonzero;"/>
    </g>
</svg>
